<?xml version="1.0" encoding="UTF-8" standalone="no"?>
<svg
   version="1.1"
   width="36"
   height="36"
   shape-rendering="crispEdges"
   id="svg1296"
   sodipodi:docname="favicon.svg"
   inkscape:version="1.4 (e7c3feb1, 2024-10-09)"
   xmlns:inkscape="http://www.inkscape.org/namespaces/inkscape"
   xmlns:sodipodi="http://sodipodi.sourceforge.net/DTD/sodipodi-0.dtd"
   xmlns="http://www.w3.org/2000/svg"
   xmlns:svg="http://www.w3.org/2000/svg">
  <defs
     id="defs1296" />
  <sodipodi:namedview
     id="namedview1296"
     pagecolor="#ffffff"
     bordercolor="#000000"
     borderopacity="0.25"
     inkscape:showpageshadow="2"
     inkscape:pageopacity="0.0"
     inkscape:pagecheckerboard="0"
     inkscape:deskcolor="#d1d1d1"
     inkscape:zoom="17.813691"
     inkscape:cx="13.500852"
     inkscape:cy="18.497009"
     inkscape:window-width="1440"
     inkscape:window-height="766"
     inkscape:window-x="0"
     inkscape:window-y="25"
     inkscape:window-maximized="1"
     inkscape:current-layer="svg1296" />
  <path
     id="path2783"
     style="baseline-shift:baseline;display:inline;overflow:visible;vector-effect:none;fill:#e43b44;shape-rendering:auto;enable-background:accumulate;stop-color:#000000;stop-opacity:1"
     d="M 0 0 L 0 1 L 0 2 L 0 3 L 0 4 L 0 5 L 0 6 L 1 6 L 2 6 L 3 6 L 4 6 L 5 6 L 6 6 L 7 6 L 8 6 L 9 6 L 10 6 L 11 6 L 12 6 L 13 6 L 14 6 L 14 5 L 14 4 L 15 4 L 16 4 L 17 4 L 18 4 L 18 3 L 18 2 L 19 2 L 20 2 L 21 2 L 22 2 L 23 2 L 24 2 L 25 2 L 26 2 L 26 3 L 26 4 L 25 4 L 24 4 L 24 5 L 24 6 L 25 6 L 26 6 L 27 6 L 28 6 L 29 6 L 30 6 L 31 6 L 32 6 L 33 6 L 34 6 L 35 6 L 36 6 L 36 5 L 36 4 L 36 3 L 36 2 L 36 1 L 36 0 L 35 0 L 34 0 L 33 0 L 32 0 L 31 0 L 30 0 L 29 0 L 28 0 L 27 0 L 26 0 L 25 0 L 24 0 L 23 0 L 22 0 L 21 0 L 20 0 L 19 0 L 18 0 L 17 0 L 16 0 L 15 0 L 14 0 L 13 0 L 12 0 L 11 0 L 10 0 L 9 0 L 8 0 L 7 0 L 6 0 L 5 0 L 4 0 L 3 0 L 2 0 L 1 0 L 0 0 z "
     inkscape:label="red" />
  <path
     id="rect217"
     style="fill:#f77622"
     d="m 0,6 v 1 1 1 1 1 1 h 1 1 1 1 1 1 1 1 1 1 V 11 10 9 8 7 6 H 9 8 7 6 5 4 3 2 1 Z m 22,0 v 1 1 1 1 1 1 h 1 1 1 1 1 1 1 1 1 1 1 1 1 1 V 11 10 9 8 7 6 h -1 -1 -1 -1 -1 -1 -1 -1 -1 -1 -1 -1 -1 z"
     inkscape:label="orange" />
  <path
     id="rect433"
     style="fill:#fee761"
     d="m 0,12 v 1 1 1 1 1 1 h 1 1 1 1 1 1 1 1 1 1 V 17 16 15 14 13 12 H 9 8 7 6 5 4 3 2 1 Z m 22,0 v 1 1 1 1 1 1 h 1 1 1 1 1 1 1 1 1 1 1 1 1 1 v -1 -1 -1 -1 -1 -1 h -1 -1 -1 -1 -1 -1 -1 -1 -1 -1 -1 -1 -1 z"
     inkscape:label="yellow" />
  <path
     id="rect91"
     style="display:inline;fill:#3f2832"
     d="m 18,2 v 1 1 h 1 1 V 3 2 h -1 z m -4,2 v 1 1 h 1 1 V 5 4 h -1 z m -4,2 v 1 1 h 1 1 V 7 6 h -1 z m 0,12 v 1 1 h 1 1 v -1 -1 h -1 z m 2,2 v 1 1 h 1 1 v -1 -1 h -1 z m 2,2 v 1 1 h 1 1 v -1 -1 h -1 z"
     inkscape:label="dark-brown" />
  <path
     id="rect93"
     style="display:inline;fill:#743f39"
     d="m 20,2 v 1 1 h -1 -1 -1 -1 v 1 1 h -1 -1 -1 -1 v 1 1 h 1 1 1 1 1 1 1 1 1 1 V 7 6 h 1 1 V 5 4 h 1 1 V 3 2 h -1 -1 -1 -1 -1 z m -8,6 h -1 -1 v 1 1 h 1 1 V 9 Z m -2,4 v 1 1 1 1 1 1 h 1 1 v 1 1 h 1 1 v 1 1 h 1 1 v 1 1 h 1 1 1 1 1 1 v -1 -1 -1 -1 -1 -1 -1 -1 h -1 -1 v 1 1 h -1 -1 -1 -1 -1 -1 v -1 -1 h -1 -1 v -1 -1 -1 -1 h -1 z m 4,4 h 1 1 1 1 1 1 v -1 -1 h -1 -1 -1 -1 -1 -1 v 1 z"
     inkscape:label="light-brown" />
  <path
     id="rect649"
     style="fill:#3e8948"
     d="m 0,18 v 1 1 1 1 1 1 h 1 1 1 1 1 1 1 1 1 1 v -1 -1 h 1 1 V 21 20 H 11 10 V 19 18 H 9 8 7 6 5 4 3 2 1 Z m 22,0 v 1 1 1 1 h 1 1 v 1 1 h 1 1 1 1 1 1 1 1 1 1 1 1 v -1 -1 -1 -1 -1 -1 h -1 -1 -1 -1 -1 -1 -1 -1 -1 -1 -1 -1 -1 z"
     inkscape:label="green" />
  <path
     id="rect805"
     style="fill:#c0cbdc"
     d="m 12,22 v 1 1 h 1 1 v -1 -1 h -1 z m 2,2 v 1 1 h 1 1 1 1 1 1 v -1 -1 h -1 -1 -1 -1 -1 z m -4,2 v 1 1 1 1 h 1 1 v -1 -1 -1 -1 h -1 z m 12,0 v 1 1 1 1 h 1 1 v -1 -1 -1 -1 h -1 z"
     inkscape:label="gray" />
  <path
     id="rect1025"
     style="fill:#0095e9"
     d="m 16,28 v 1 1 h 1 v -1 -1 z m -2,2 v 1 1 h 1 v -1 -1 z"
     inkscape:label="light-blue" />
  <path
     id="rect303"
     style="display:inline;fill:#124e89"
     d="m 14,8 v 1 1 h 1 1 V 9 8 h -1 z m 6,0 v 1 1 h 1 1 V 9 8 H 21 Z M 0,24 v 1 1 1 1 1 1 H 1 2 3 4 5 6 7 8 V 29 28 27 26 25 24 H 7 6 5 4 3 2 1 Z m 26,0 v 1 1 1 1 1 1 h 1 1 1 1 1 1 1 1 1 1 v -1 -1 -1 -1 -1 -1 h -1 -1 -1 -1 -1 -1 -1 -1 -1 z m -9,4 v 1 1 h -1 -1 v 1 1 h 1 1 1 1 1 1 v -1 -1 h -1 -1 v -1 -1 h -1 z"
     inkscape:label="dark-blue" />
  <path
     id="rect301"
     style="display:inline;fill:#ffffff"
     d="m 12,8 v 1 1 1 1 h 1 1 1 1 V 11 10 H 15 14 V 9 8 h -1 z m 6,0 v 1 1 1 1 h 1 1 1 1 V 11 10 H 21 20 V 9 8 h -1 z m -6,6 v 1 1 h 1 1 v -1 -1 h -1 z m 2,2 v 1 1 h 1 1 1 1 1 1 v -1 -1 h -1 -1 -1 -1 -1 z m -4,6 v 1 1 H 9 8 v 1 1 1 1 1 1 h 1 1 v -1 -1 -1 -1 h 1 1 v 1 1 1 1 1 1 1 1 1 1 h 1 1 1 1 1 1 1 1 1 1 v -1 -1 -1 -1 -1 -1 -1 -1 -1 -1 h 1 1 v 1 1 1 1 h 1 1 v -1 -1 -1 -1 -1 -1 h -1 -1 v -1 -1 h -1 -1 v 1 1 h -1 -1 v 1 1 h -1 -1 -1 -1 -1 -1 v -1 -1 h -1 -1 v -1 -1 h -1 z m 6,6 h 1 1 1 v 1 1 h 1 1 v 1 1 h -1 -1 -1 -1 -1 -1 -1 v -1 -1 h 1 1 v -1 z"
     inkscape:label="white" />
  <path
     id="rect449"
     style="display:inline;fill:#c28569"
     d="m 16,12 v 1 1 h 1 1 v -1 -1 h -1 z m -6,18 v 1 1 1 1 1 1 h 1 1 v -1 -1 -1 -1 -1 -1 h -1 z m 12,0 v 1 1 1 1 1 1 h 1 1 v -1 -1 -1 -1 -1 -1 h -1 z"
     inkscape:label="dark-skin" />
  <path
     id="rect305"
     style="display:inline;fill:#e8b796"
     d="m 16,8 v 1 1 1 1 h 1 1 V 11 10 9 8 h -1 z m 2,4 v 1 1 h 1 1 v 1 1 h 1 1 v -1 -1 -1 -1 h -1 -1 -1 z m -2,0 h -1 -1 -1 -1 v 1 1 h 1 1 1 1 v -1 z m -4,0 v -1 -1 h -1 -1 v 1 1 h 1 z M 8,30 v 1 1 1 1 1 1 h 1 1 V 35 34 33 32 31 30 H 9 Z m 16,0 v 1 1 1 1 1 1 h 1 1 v -1 -1 -1 -1 -1 -1 h -1 z"
     inkscape:label="skin" />
  <path
     id="rect1081"
     style="fill:#68386c"
     d="m 0,30 v 1 1 1 1 1 1 H 1 2 3 4 5 6 7 8 V 35 34 33 32 31 30 H 7 6 5 4 3 2 1 Z m 26,0 v 1 1 1 1 1 1 h 1 1 1 1 1 1 1 1 1 1 v -1 -1 -1 -1 -1 -1 h -1 -1 -1 -1 -1 -1 -1 -1 -1 z"
     inkscape:label="purple" />
</svg>
